<svg height="512" viewBox="0 0 60 60" width="512" xmlns="http://www.w3.org/2000/svg"><g id="chill" transform="translate(-1)"><path  d="m37 15c0 4.418278 3.581722 8 8 8s8-3.581722 8-8-3.581722-8-8-8c-4.4162219.00495988-7.9950401 3.5837781-8 8zm8-6c3.3137085 0 6 2.6862915 6 6s-2.6862915 6-6 6-6-2.6862915-6-6c.0033074-3.3123376 2.6876624-5.99669262 6-6z"/><path id="Shape" d="m44 27v2c0 .5522847.4477153 1 1 1s1-.4477153 1-1v-2c0-.5522847-.4477153-1-1-1s-1 .4477153-1 1z"/><path id="Shape" d="m46 3v-2c0-.55228475-.4477153-1-1-1s-1 .44771525-1 1v2c0 .55228475.4477153 1 1 1s1-.44771525 1-1z"/><path id="Shape" d="m59 16c.5522847 0 1-.4477153 1-1s-.4477153-1-1-1h-2c-.5522847 0-1 .4477153-1 1s.4477153 1 1 1z"/><path id="Shape" d="m31 16h2c.5522847 0 1-.4477153 1-1s-.4477153-1-1-1h-2c-.5522847 0-1 .4477153-1 1s.4477153 1 1 1z"/><path id="Shape" d="m55.606 4.394c-.3904999-.39038194-1.0235001-.39038194-1.414 0l-1.414 1.414c-.2599566.25107447-.3642126.62287789-.2726972.97250732.0915155.34962944.3645604.6226744.7141899.71418984.3496294.09151544.7214328-.01274058.9725073-.27269716l1.414-1.414c.3903819-.39049985.3903819-1.02350015 0-1.414z"/><path id="Shape" d="m34.394 25.606c.3904999.3903819 1.0235001.3903819 1.414 0l1.414-1.414c.3789722-.3923789.3735524-1.0160848-.0121814-1.4018186s-1.0094397-.3911536-1.4018186-.0121814l-1.414 1.414c-.3903819.3904999-.3903819 1.0235001 0 1.414z"/><path id="Shape" d="m54.192 22.778c-.3923789-.3789722-1.0160848-.3735524-1.4018186.0121814s-.3911536 1.0094397-.0121814 1.4018186c1.538 1.538 1.595 1.708 2.122 1.708.4043959-.0000863.7689341-.2437275.923678-.6173454.1547439-.373618.0692299-.8036603-.216678-1.0896546z"/><path id="Shape" d="m35.808 4.394c-.3923789-.37897221-1.0160848-.37355237-1.4018186.01218142-.3857338.3857338-.3911536 1.00943969-.0121814 1.40181858 1.537 1.538 1.594 1.707 2.121 1.707.4043959-.00008635.7689341-.2437275.923678-.61734544s.0692299-.80366031-.216678-1.08965456z"/><path id="Shape" d="m58 44c-7.632 0-6.9.037-6.851-.073.5962013-1.3233592.3084347-2.877777-.722-3.9l-6.89-6.89c-1.9552376-1.9490652-5.1187624-1.9490652-7.074 0l-4.96 4.96c-.7807702.7794319-2.0452298.7794319-2.826 0l-10.1-10.1c2.6416801-1.5749445 3.9435741-4.69151 3.2071858-7.6775871-.7363884-2.9860771-3.338024-5.1400037-6.4090695-5.3061486-3.0710454-.1661448-5.88987285 1.6945325-6.9441163 4.5837357-1.57216189-.9078872-3.55468436-.6704569-4.868.583-1.56019529 1.5617701-1.56019529 4.0922299 0 5.654l.367.367c-1.36967454.3656252-2.43869258 1.4366974-2.80168775 2.8070713s.03561815 2.8302035 1.04468775 3.8259287l11.173 11.166h-4.346c-2.209139 0-4 1.790861-4 4s1.790861 4 4 4h2v5c0 1.6568542 1.3431458 3 3 3h1c1.6568542 0 3-1.3431458 3-3v-5h30.026c-1.5577271 2.0546425-1.2924015 4.9579466.6119486 6.6961987s4.8197527 1.7382521 6.7241028 0 2.1696757-4.6415562.6119486-6.6961987h2.026c1.6568542 0 3-1.3431458 3-3v-2c0-1.6568542-1.3431458-3-3-3zm-20.123-9.453c1.1735545-1.1699531 3.0724455-1.1699531 4.246 0l6.89 6.891c.4346999.4332464.5616215 1.0876017.3204192 1.6519491-.2412023.5643473-.8018656.9248285-1.4154192.9100509-.4175398-.0231783-.8107029-.2040333-1.1-.506l-6.109-6.12c-.1878183-.1884069-.4429684-.2942096-.709-.294-.553 0-.625.211-2.459 2.047l-2.122-2.122zm2.123 4.948 4.5 4.505h-9zm-7.083.012 1.088-1.088 2.123 2.123-3.453 3.458h-7.981l-1.3-1.3 4.059-3.04c1.5759295 1.3999926 3.9688822 1.3329864 5.464-.153zm-17.917-22.507c2.4607997-.0046645 4.5576115 1.7853127 4.939124 4.216363.3815124 2.4310502-1.0661913 4.7772796-3.410124 5.526637-.2933297-.087194-.5949674-.1434997-.9-.168l-5.521-5.51c.4369782-2.3574397 2.4944038-4.0670544 4.892-4.065zm-10.029 4.593c.79134003-.7659643 2.04765997-.7659643 2.839 0l.437.428c.079.1-.128-.117 6.227 6.226.1954321.1988042.4678377.3025082.746.284 1.275.046 1.679.611 2.512 1.444l-.288.193c-.3038342.195718-.4784196.54015-.4566519.9009088.0217677.3607589.2365008.6816999.5616637.839465.3251629.1577652.7101508.1278016 1.0069882-.0783738l.618-.413 4.012 4.011c-.2694407.3969973-.2189469.9294115.1203208 1.2686792s.8716819.3897615 1.2686792.1203208l1.432 1.433-4.039 3.025c-15.339-15.297-14.113-14.124-14.611-14.482-.1-.066.513.513-2.38-2.38-.7771094-.778424-.77978993-2.0382762-.006-2.82zm2.029 26.407c0-1.1045695.8954305-2 2-2h6.346l4 4h-10.346c-1.1045695 0-2-.8954305-2-2zm9 9c0 .5522847-.4477153 1-1 1h-1c-.5522847 0-1-.4477153-1-1v-5h3zm39-2c0 1.6568542-1.3431458 3-3 3s-3-1.3431458-3-3 1.3431458-3 3-3 3 1.3431458 3 3zm4-6c0 .5522847-.4477153 1-1 1h-35.826l-18.587-18.587c-.77943189-.7807702-.77943189-2.0452298 0-2.826.79430586-.745997 2.03169414-.745997 2.826 0l17.12 17.119c.1880665.1868129.4419238.2923773.707.294h33.76c.5522847 0 1 .4477153 1 1z"/><circle id="Oval" cx="52" cy="55" r="1"/></g></svg>