<svg id="Capa_1" enable-background="new 0 0 511.178 511.178" height="75" viewBox="0 0 511.178 511.178" width="75" xmlns="http://www.w3.org/2000/svg"><g><path d="m494.321 297.648-220.05-288.404c-4.417-5.788-11.401-9.244-18.682-9.244s-14.266 3.456-18.684 9.245l-25.022 32.795c-2.513 3.293-1.88 8 1.413 10.512 3.295 2.514 7.999 1.879 10.513-1.413l25.021-32.794c1.599-2.094 4.125-3.345 6.759-3.345s5.16 1.25 6.758 3.344l210.855 276.354h-21.384l-190.266-249.37c-1.419-1.859-3.624-2.951-5.963-2.951s-4.544 1.091-5.963 2.951l-10.928 14.322c-2.513 3.293-1.88 8 1.414 10.512 3.295 2.512 7.998 1.879 10.512-1.414l4.965-6.508 185.019 242.491v66.108c0 4.142 3.357 7.5 7.5 7.5s7.5-3.358 7.5-7.5v-61.143h32.751c2.852 0 5.457-1.618 6.722-4.174 1.265-2.555.97-5.607-.76-7.874z"/><path d="m458.444 463.946h-2.837v-61.143c0-4.142-3.357-7.5-7.5-7.5s-7.5 3.358-7.5 7.5v24.907h-137.303v-15.34c0-26.586-21.629-48.215-48.215-48.215s-48.215 21.629-48.215 48.215v15.341h-54.246c-4.143 0-7.5 3.358-7.5 7.5s3.357 7.5 7.5 7.5h54.246v21.236h-136.304v-21.237h50.096c4.143 0 7.5-3.358 7.5-7.5s-3.357-7.5-7.5-7.5h-50.096v-122.978l11.458-15.018c2.513-3.293 1.88-8-1.413-10.512-3.296-2.513-8-1.879-10.513 1.414l-10.743 14.082h-21.383l20.023-26.243c2.513-3.293 1.88-8-1.413-10.512-3.297-2.515-8-1.88-10.513 1.413l-29.217 38.292c-1.729 2.267-2.024 5.319-.759 7.875s3.87 4.174 6.722 4.174h32.751v154.249h-2.837c-9.11 0-16.522 7.412-16.522 16.522v23.209c0 4.142 3.357 7.5 7.5 7.5h423.756c4.143 0 7.5-3.358 7.5-7.5v-23.209c0-9.11-7.412-16.522-16.523-16.522zm-17.837-21.236v21.236h-137.303v-21.236zm-218.733-30.34c0-18.315 14.9-33.215 33.215-33.215s33.215 14.9 33.215 33.215v51.577h-66.43zm238.093 83.808h-408.756v-15.709c0-.839.683-1.522 1.522-1.522h405.711c.84 0 1.522.683 1.522 1.522v15.709z"/><path d="m143.153 287.012v14.542c-3.751.413-6.67 3.59-6.67 7.452 0 4.142 3.357 7.5 7.5 7.5h47.144c4.143 0 7.5-3.358 7.5-7.5 0-3.548-2.466-6.513-5.775-7.293v-20.153c13.146-4.446 25.243-11.181 35.829-19.72l134.19 103.37c4.83 3.721 10.628 5.685 16.625 5.685 1.185 0 2.378-.077 3.572-.231 7.241-.939 13.683-4.643 18.138-10.426 4.456-5.784 6.393-12.957 5.453-20.198s-4.642-13.682-10.426-18.137l-29.209-22.5v-41.115c0-13.702-11.147-24.85-24.85-24.85s-24.85 11.147-24.85 24.85v2.831l-55.243-42.555c6.512-14.531 10.14-30.625 10.14-47.552 0-64.328-52.334-116.663-116.662-116.663-26.628 0-51.704 8.741-72.519 25.278-3.242 2.577-3.783 7.294-1.206 10.538 2.576 3.243 7.294 3.784 10.538 1.207 18.133-14.407 39.982-22.022 63.187-22.022 56.057 0 101.662 45.605 101.662 101.663s-45.605 101.659-101.661 101.659c-56.058 0-101.663-45.605-101.663-101.663 0-20.834 6.262-40.861 18.108-57.917 2.362-3.402 1.521-8.075-1.882-10.438-3.402-2.363-8.076-1.521-10.438 1.882-13.6 19.58-20.788 42.566-20.788 66.474-.001 60.137 45.739 109.788 104.256 116.002zm34.699 14.493h-19.698v-13.866c6.721-.147 13.301-.87 19.698-2.113zm154.473-30.143v-13.076c0-5.431 4.419-9.85 9.85-9.85s9.85 4.418 9.85 9.85v29.56l-19.808-15.258c.065-.4.108-.807.108-1.226zm54.754 62.423c2.61 2.011 4.281 4.917 4.705 8.184.424 3.268-.45 6.504-2.461 9.114s-4.917 4.281-8.185 4.705c-3.264.425-6.504-.45-9.113-2.46l-132.134-101.786c5.681-5.946 10.737-12.493 15.071-19.53z"/><path d="m155.56 257.672c47.786 0 86.662-38.876 86.662-86.663s-38.876-86.663-86.662-86.663-86.663 38.876-86.663 86.663 38.876 86.663 86.663 86.663zm0-158.325c39.515 0 71.662 32.148 71.662 71.663s-32.147 71.663-71.662 71.663c-39.516 0-71.663-32.148-71.663-71.663s32.147-71.663 71.663-71.663z"/></g></svg>