<?xml version="1.0" encoding="iso-8859-1"?>
<!-- Generator: Adobe Illustrator 19.0.0, SVG Export Plug-In . SVG Version: 6.00 Build 0)  -->
<svg version="1.1" id="map" xmlns="http://www.w3.org/2000/svg" xmlns:xlink="http://www.w3.org/1999/xlink" x="0px" y="0px"
	 viewBox="0 0 512 512" style="enable-background:new 0 0 512 512;" xml:space="preserve">
<path d="M82.413,215.898c1.627,0,3.271-0.483,4.704-1.487c3.711-2.602,4.611-7.719,2.009-11.431
	c-7.616-10.864-12.001-17.752-12.045-17.82c-2.431-3.825-7.502-4.956-11.327-2.525c-3.825,2.43-4.957,7.501-2.526,11.327
	c0.184,0.29,4.607,7.239,12.458,18.44C77.283,214.68,79.828,215.898,82.413,215.898z"/>
<path d="M195.615,343.205c1.473,1.097,3.193,1.628,4.899,1.628c2.502,0,4.974-1.14,6.586-3.302c2.709-3.633,1.96-8.775-1.674-11.485
	c-10.528-7.85-21.505-17.206-32.624-27.809c-3.28-3.127-8.474-3.005-11.603,0.276c-3.127,3.28-3.004,8.476,0.277,11.603
	C173.071,325.175,184.557,334.962,195.615,343.205z"/>
<path d="M321.704,367.114c1.508,0,3.034-0.416,4.4-1.286c12.032-7.663,23.098-18.899,32.891-33.398
	c2.536-3.755,1.548-8.856-2.208-11.394c-3.755-2.536-8.857-1.548-11.394,2.208c-8.526,12.624-17.983,22.293-28.106,28.74
	c-3.823,2.435-4.948,7.507-2.513,11.33C316.339,365.772,318.993,367.114,321.704,367.114z"/>
<path d="M508.835,47.292c-1.997-1.555-4.601-2.102-7.054-1.479l-49.948,12.648c-1.968-6.331-4.765-12.458-8.396-18.216
	c-28.993-45.975-98.133-45.898-127.077-0.001c-3.63,5.758-6.428,11.886-8.396,18.217l-49.948-12.648
	c-0.056-0.014-0.113-0.02-0.168-0.033c-0.152-0.035-0.306-0.062-0.461-0.089c-0.152-0.026-0.305-0.051-0.458-0.069
	c-0.154-0.018-0.307-0.026-0.463-0.035c-0.154-0.009-0.309-0.018-0.463-0.018c-0.154,0-0.309,0.009-0.463,0.018
	c-0.155,0.009-0.31,0.018-0.464,0.035c-0.152,0.018-0.302,0.043-0.453,0.069c-0.158,0.027-0.313,0.055-0.468,0.091
	c-0.055,0.013-0.111,0.018-0.165,0.032l-121.885,30.86L71.692,61.378c-4.392-1.115-8.857,1.548-9.969,5.941
	c-1.112,4.393,1.547,8.857,5.941,9.969l56.233,14.239v157.364c-2.97-3.634-5.935-7.323-8.885-11.074
	c-2.802-3.562-7.961-4.18-11.524-1.376c-3.562,2.802-4.179,7.961-1.376,11.524c7.213,9.17,14.514,18.03,21.785,26.444v213.049
	L16.413,460.242V64.311l18.425,4.666c4.392,1.115,8.857-1.548,9.969-5.941c1.112-4.393-1.547-8.857-5.941-9.969l-28.645-7.253
	c-2.454-0.624-5.058-0.076-7.054,1.479C1.169,48.847,0,51.237,0,53.768v412.862c0,3.756,2.551,7.033,6.192,7.956l123.897,31.371
	c0.148,0.037,0.299,0.055,0.448,0.084c0.119,0.023,0.236,0.049,0.356,0.067c0.403,0.06,0.807,0.1,1.211,0.1
	c0.403,0,0.806-0.039,1.208-0.1c0.121-0.017,0.24-0.044,0.359-0.068c0.149-0.028,0.299-0.046,0.446-0.084l121.883-30.861
	l46.217,11.702c4.393,1.115,8.856-1.548,9.969-5.941c1.113-4.393-1.547-8.857-5.941-9.969l-42.039-10.645V376.75
	c5.323,1.039,10.537,1.645,15.619,1.794c0.083,0.002,0.164,0.003,0.246,0.003c4.421,0,8.067-3.517,8.199-7.965
	c0.135-4.53-3.43-8.311-7.96-8.445c-5.174-0.153-10.553-0.878-16.104-2.161V64.311l40.556,10.27
	c-1.053,11.99,0.765,24.038,5.357,35.336c0.299,0.736,0.609,1.469,0.933,2.199l60.637,137.041v17.915
	c-2.204,6.583-4.528,12.915-6.924,18.817c-1.705,4.199,0.317,8.985,4.517,10.691c0.79,0.321,1.601,0.505,2.407,0.572v190.306
	l-32.62-8.26c-4.394-1.114-8.856,1.547-9.969,5.941c-1.113,4.393,1.547,8.857,5.941,9.969l42.841,10.848
	c0.148,0.037,0.298,0.055,0.446,0.084c0.12,0.023,0.238,0.049,0.359,0.068c0.403,0.06,0.806,0.1,1.209,0.1
	c0.403,0,0.806-0.039,1.208-0.1c0.121-0.018,0.24-0.044,0.36-0.068c0.148-0.028,0.298-0.046,0.445-0.083l123.897-31.371
	c3.641-0.922,6.192-4.198,6.192-7.956V201.98c0-4.532-3.674-8.206-8.206-8.206s-8.206,3.674-8.206,8.206v258.263l-107.483,27.215
	c0,0,0-218.879,0-218.898v-19.403l60.637-137.041c5.277-11.925,7.411-24.764,6.289-37.535l40.557-10.27v91.021
	c0,4.532,3.674,8.206,8.206,8.206s8.206-3.674,8.206-8.206V53.768C512,51.237,510.831,48.847,508.835,47.292z M247.794,354.745
	c-2.127-0.855-4.271-1.773-6.434-2.773c-4.115-1.901-8.991-0.107-10.893,4.007c-1.902,4.114-0.107,8.991,4.007,10.893
	c4.492,2.076,8.934,3.869,13.32,5.397v87.976l-107.485,27.215V283.939c0.658-0.322,1.283-0.735,1.857-1.246
	c3.383-3.016,3.681-8.203,0.665-11.586c-0.839-0.942-1.681-1.898-2.522-2.854V91.527l107.484-27.216v290.433H247.794z
	 M435.203,101.819c-0.056,0.152-0.114,0.303-0.172,0.455c-10.576,28.045-24.328,55.246-36.453,82.649
	c-6.227,14.073-12.454,28.147-18.681,42.22l-14.965-33.82c-13.397-30.278-27.872-60.306-40.169-91.046
	c-0.058-0.153-0.116-0.305-0.173-0.458c-6.393-17.449-4.376-36.918,5.651-52.817c22.732-36.048,76.631-35.963,99.31,0
	C439.579,64.899,441.597,84.369,435.203,101.819z"/>
<path d="M417.257,77.596c0-0.02-0.004-0.038-0.004-0.058c-0.465-20.21-17.038-36.509-37.355-36.509
	c-20.316,0-36.886,16.296-37.355,36.501c0,0.015-0.003,0.03-0.003,0.045l-0.004,0.142c-0.008,0.229-0.014,0.458-0.014,0.69
	c0,20.61,16.767,37.377,37.378,37.377c20.611,0,37.378-16.767,37.378-37.377c0-0.224-0.005-0.449-0.013-0.671L417.257,77.596z
	 M371.691,97.696c-4.112-1.756-7.558-4.818-9.832-8.658l9.832,2.489V97.696z M397.497,89.747c-2.256,3.485-5.575,6.319-9.394,7.949
	v-6.169l9.832-2.489C397.794,89.277,397.648,89.513,397.497,89.747z M379.897,76.674l-19.829-5.02
	c2.82-8.252,10.633-14.212,19.829-14.212c9.196,0,17.009,5.959,19.829,14.212L379.897,76.674z"/>
<g>
</g>
<g>
</g>
<g>
</g>
<g>
</g>
<g>
</g>
<g>
</g>
<g>
</g>
<g>
</g>
<g>
</g>
<g>
</g>
<g>
</g>
<g>
</g>
<g>
</g>
<g>
</g>
<g>
</g>
</svg>
