<?xml version="1.0"?>
<svg xmlns="http://www.w3.org/2000/svg" viewBox="0 0 64 64" width="512" height="512"><g id="seller"><path d="M53,20a9,9,0,1,0-9-9A9.01,9.01,0,0,0,53,20ZM53,4a7,7,0,1,1-7,7A7.008,7.008,0,0,1,53,4Z"/><path d="M52,14a1,1,0,0,0,.707-.293l5-5L56.293,7.293,52,11.586,49.707,9.293l-1.414,1.414,3,3A1,1,0,0,0,52,14Z"/><path d="M61,56H60V41a1,1,0,0,0-1-1H47V38.24c.63-1.09,4.15-6.56,6.54-10.24H57a5,5,0,0,0,5-5,1,1,0,0,0-1-1H51a4.989,4.989,0,0,0-4.96,4.59l-3.26,3.99a7.979,7.979,0,0,0-3.48-1.53l-2.98-1a.97.97,0,0,0-.63.01l-.32-1.93A7.023,7.023,0,0,0,38.92,21H40a2.006,2.006,0,0,0,2-2V18a2,2,0,0,0-1.62-1.96l1.33-1.33A1.033,1.033,0,0,0,42,14V13a7.008,7.008,0,0,0-7-7H29a7.008,7.008,0,0,0-7,7v1a1.033,1.033,0,0,0,.29.71l1.33,1.33A2,2,0,0,0,22,18v1a2.006,2.006,0,0,0,2,2h1.08a7.023,7.023,0,0,0,3.55,5.13l-.32,1.93a.97.97,0,0,0-.63-.01l-2.98,1a7.979,7.979,0,0,0-3.48,1.53l-3.26-3.99A4.989,4.989,0,0,0,13,22H3a1,1,0,0,0-1,1,5,5,0,0,0,5,5h3.45L17,38.29V40H5a1,1,0,0,0-1,1V56H3a1,1,0,0,0-1,1v4a1,1,0,0,0,1,1H61a1,1,0,0,0,1-1V57A1,1,0,0,0,61,56ZM50,42h2v2H50Zm-2,0v3a1,1,0,0,0,1,1h4a1,1,0,0,0,1-1V42h4V56H44V42Zm3-18h8.83A3.014,3.014,0,0,1,57,26H48.17A3.014,3.014,0,0,1,51,24ZM40,19H39V18h1ZM25,19H24V18h1Zm0-5v.59l-1-1V13a5,5,0,0,1,5-5h6a5,5,0,0,1,5,5v.59l-1,1V14a1,1,0,0,0-.76-.97l-8-2a.972.972,0,0,0-.69.08l-4,2A.977.977,0,0,0,25,14Zm2,6V14.62l3.12-1.56L37,14.78V20a5,5,0,0,1-10,0Zm6.93,9.66L32,31.59l-1.93-1.93.47-2.82a6.741,6.741,0,0,0,2.92,0Zm-6.2.48,3.56,3.57a1.008,1.008,0,0,0,1.42,0l3.56-3.57,1.13.38L33.49,36H30.51L26.6,30.52ZM33.82,42l1.11,6.66L32,51.59l-2.93-2.93L30.18,42Zm-3.31-2,.34-2h2.3l.34,2ZM7,26a3.014,3.014,0,0,1-2.83-2H13a3.014,3.014,0,0,1,2.83,2Zm5.82,2h3.71l8.7,10.63,1.54-1.26-4.29-5.25a6.55,6.55,0,0,1,2.09-1.01l4.38,6.13-1.94,11.6a1.011,1.011,0,0,0,.28.87l4,4a1.014,1.014,0,0,0,1.42,0l4-4a1.011,1.011,0,0,0,.28-.87l-1.94-11.6,4.38-6.13a6.55,6.55,0,0,1,2.09,1.01l-4.29,5.25,1.54,1.26L47.47,28h3.69C45,37.49,45,37.64,45,38v2H43a1,1,0,0,0-1,1V56H22V41a1,1,0,0,0-1-1H19V38a.949.949,0,0,0-.16-.54ZM12,42h2v2H12ZM6,42h4v3a1,1,0,0,0,1,1h4a1,1,0,0,0,1-1V42h4V56H6ZM60,60H4V58H60Z"/><path d="M5,20H17a3,3,0,0,0,3-3V5a3,3,0,0,0-3-3H5A3,3,0,0,0,2,5V17A3,3,0,0,0,5,20ZM4,5A1,1,0,0,1,5,4H17a1,1,0,0,1,1,1V17a1,1,0,0,1-1,1H5a1,1,0,0,1-1-1Z"/><rect x="6" y="6" width="2" height="2"/><rect x="10" y="6" width="6" height="2"/><rect x="6" y="10" width="10" height="2"/><rect x="6" y="14" width="10" height="2"/></g></svg>
